<mxfile host="app.diagrams.net" modified="2023-12-22T21:17:53.430Z" agent="Mozilla/5.0 (Windows NT 10.0; Win64; x64) AppleWebKit/537.36 (KHTML, like Gecko) Chrome/119.0.0.0 Safari/537.36 OPR/105.0.0.0 (Edition Yx GX)" version="22.1.11" etag="iSIO4p4wbTYB8V1EBwv2" type="github">
  <diagram name="Страница — 1" id="2aEbHYK-aRO8RGXyfqmA">
    <mxGraphModel>
      <root>
        <mxCell id="0" />
        <mxCell id="1" parent="0" />
      </root>
    </mxGraphModel>
  </diagram>
</mxfile>
